<svg width="283" height="62" viewBox="0 0 283 62" fill="none" xmlns="http://www.w3.org/2000/svg">
<g clip-path="url(#clip0_83_244)">
<path d="M40.1149 16.9C42.0122 16.2 43.9095 15.9 45.9067 15.9C49.0024 15.9 52.1979 16.9 54.8941 18.6C55.0938 17.5 55.2935 16.4 55.2935 15.3C55.2935 6.79999 48.4032 0 40.015 0C36.0206 0 32.3258 1.49999 29.4299 4.29999L29.3301 4.5C28.0319 5.9 27.0333 7.19999 26.3343 8.59999C25.6353 9.99999 25.2358 11.4 24.9362 13C24.4369 16.4 25.0361 19.8 26.7337 22.8C27.6324 24.5 28.9306 25.9 30.4285 27.3C30.7281 26.3 31.2274 25.3 31.7267 24.4C33.4243 20.9 36.4201 18.3 40.1149 16.9Z" fill="#394531"/>
<path d="M35.4215 28.8C35.5214 28.8 35.5214 28.8 35.4215 28.8H35.5213C39.4159 29.4 42.911 31.4 45.4074 34.3C46.406 35.5 47.3048 36.8 47.9039 38.2C48.1036 38.5 48.2035 38.9 48.3034 39.2C48.9025 40.6 49.2021 42.2 49.302 43.7C49.4018 45.3 49.302 47 48.9025 48.5C50.001 48.4 51.1993 48.1 52.2978 47.7C60.1867 44.7 64.181 35.9 61.1853 28C60.1867 25.4 58.489 23.1 56.2921 21.4L55.9926 21.2L55.8927 21.1C53.2963 19.2 50.1008 18.2 46.9053 18.2C41.4131 18.2 36.3202 21.2 33.624 26C33.1247 26.8 32.7253 27.8 32.4257 28.7C32.6254 28.7 32.8251 28.7 32.925 28.7C33.9236 28.6 34.6226 28.7 35.4215 28.8Z" fill="#394531"/>
<path d="M32.3258 61.9C35.9208 61.9 39.5157 60.6 42.3118 58.2C44.8083 56.1 46.5059 53.3 47.2049 50.1C47.5045 48.5 47.7042 46.9 47.6044 45.4C47.5045 43.6 47.0052 41.9 46.3062 40.2C44.1093 35.5 39.8153 32.2 34.7225 31.4C34.7225 31.4 34.7225 31.4 34.6226 31.4H34.5228C33.7239 31.3 33.0249 31.2 32.4257 31.2C32.226 31.2 32.1261 31.2 31.9264 31.2C34.5228 37.8 32.7253 45.2 27.3329 49.8C24.9362 51.9 21.9405 53.2 18.8448 53.6C19.3441 54.6 20.0431 55.6 20.842 56.5C23.6381 59.9 27.8322 61.9 32.3258 61.9Z" fill="#394531"/>
<path d="M17.1472 52.4C17.2471 52.4 17.2471 52.4 17.1472 52.4C17.2471 52.4 17.3469 52.4 17.3469 52.4C22.1402 51.8 26.3343 49 28.631 44.7C30.9278 40.7 31.2274 35.8 29.5298 31.5C28.631 32.3 27.7323 33 26.7337 33.6C24.2372 35 21.4412 35.8 18.6451 35.8C18.1458 35.8 17.6465 35.8 17.0473 35.7C14.6507 35.5 12.4538 34.8 10.4566 33.6C9.95731 33.3 9.45801 33 8.95872 32.7C7.2611 31.5 5.76321 29.9 4.66475 28.2C4.46504 27.8 4.16546 27.4 3.96574 26.9C3.16686 27.8 2.46785 28.7 1.96855 29.7C-0.0286423 33.3 -0.527942 37.4 0.570513 41.3C1.66897 45.2 4.26532 48.5 7.7604 50.5C10.0572 51.8 12.6535 52.5 15.2499 52.5C15.6493 52.5 16.0487 52.5 16.4482 52.4C16.7478 52.5 16.9475 52.5 17.1472 52.4Z" fill="#394531"/>
<path d="M17.9461 2.5C14.3511 2.5 10.9559 3.8 8.15984 6.2C5.36377 8.6 3.5663 11.9 2.96714 15.5C2.36799 19.2 3.16686 23 5.16405 26.1C6.16265 27.7 7.56068 29.2 9.15843 30.3C11.0558 31.7 13.2527 32.6 15.6493 33C16.0487 33.1 16.3483 33.1 16.6479 33.1C17.0473 33.1 17.5466 33.2 18.0459 33.2C20.7421 33.2 23.4383 32.5 25.7351 31.2C26.7337 30.6 27.6325 30 28.4313 29.2C26.7337 27.8 25.3357 26.1 24.3371 24.3C22.939 21.8 22.24 19.1 22.24 16.4C22.24 15.5 22.3399 14.7 22.4398 13.8C22.4398 13.6 22.5396 13.4 22.5396 13.3C22.8392 11.8 23.2386 10.5 23.9376 9.09999C24.6367 7.69999 25.5354 6.3 26.7337 5.2C25.835 4.6 23.8378 3.39999 20.6423 2.79999C19.7435 2.59999 18.8448 2.5 17.9461 2.5Z" fill="#394531"/>
</g>
<g clip-path="url(#clip1_83_244)">
<path d="M95.1347 18.8H93.4371H93.2374L93.1375 19L85.8478 38.2L78.6579 19L78.558 18.8H78.3583H76.6607H76.1614L76.3611 19.3L84.7493 41.5L83.7507 44.1C82.5524 47.4 80.4553 48.6 76.9603 48L76.5608 47.9V48.3V49.8V50.1L76.8604 50.2C81.1544 51 84.3499 49.1 85.9476 44.9L95.5341 19.3L95.7338 18.8H95.1347Z" fill="#394531"/>
<path d="M107.917 18.2C101.626 18.2 96.4329 23.7 96.4329 30.4C96.4329 37 101.626 42.4 107.917 42.4C114.308 42.4 119.5 37 119.5 30.4C119.401 23.7 114.208 18.2 107.917 18.2ZM107.917 40.2C102.824 40.2 98.7296 35.8 98.7296 30.4C98.7296 24.9 102.824 20.5 107.917 20.5C113.01 20.5 117.104 25 117.104 30.4C117.104 35.8 112.91 40.2 107.917 40.2Z" fill="#394531"/>
<path d="M144.565 18.8H142.967H142.568V19.2V23.2C140.571 20.1 137.176 18.3 133.381 18.3C127.09 18.3 121.897 23.8 121.897 30.5C121.897 37.1 127.09 42.5 133.381 42.5C137.176 42.5 140.471 40.7 142.568 37.7V41C142.568 46.8 138.973 50.6 133.481 50.6C129.387 50.6 126.291 48.6 125.093 45.1L124.993 44.9H124.693H122.995H122.496L122.596 45.4C123.994 50.2 127.988 53 133.381 53C140.171 53 144.765 48.2 144.765 41.1V19.4V19L144.565 18.8ZM133.481 20.6C138.773 20.6 142.668 24.7 142.668 30.4C142.668 36 138.773 40.1 133.481 40.1C128.388 40.1 124.294 35.8 124.294 30.4C124.294 25 128.388 20.6 133.481 20.6Z" fill="#394531"/>
<path d="M169.031 41.4C168.731 40.5 168.432 38.9 168.432 37.9V25.3C168.432 20.9 165.136 18.3 159.245 18.3C154.152 18.3 150.557 20.7 149.558 24.9L149.458 25.3H149.958H151.555H151.855L151.955 25.1C152.854 22.2 155.45 20.6 159.344 20.6C162.44 20.6 166.135 21.4 166.135 25.3C166.135 27.7 163.039 28.2 158.246 28.7C153.652 29.1 148.46 30.3 148.46 35.7C148.46 40.2 152.854 42.3 156.948 42.3C160.942 42.3 164.237 41 166.235 38.8C166.335 39.9 166.434 40.9 166.834 41.7L166.934 41.9H167.133H168.731H169.23L169.031 41.4ZM166.135 33.4C166.135 37.9 161.441 39.9 156.848 39.9C154.751 39.9 150.856 39 150.856 35.6C150.856 33.2 152.154 31.4 158.446 30.8C161.142 30.6 164.237 30.3 166.135 29V33.4Z" fill="#394531"/>
<path d="M200.786 18.8H199.088H198.889L198.789 19.1L193.097 37.6L187.505 19.1L187.405 18.8H187.205H185.408H185.208L185.108 19.1L179.416 37.6L173.824 19L173.724 18.8H173.425H171.727H171.328L171.427 19.3L178.218 41.6L178.318 41.9H178.617H180.315H180.614V41.6L186.306 23L191.899 41.6L191.998 41.9H192.298H193.996H194.295V41.6L201.186 19.3L201.285 18.8H200.786Z" fill="#394531"/>
<path d="M213.668 18.2C207.377 18.2 202.184 23.7 202.184 30.4C202.184 37 207.377 42.4 213.668 42.4C220.059 42.4 225.252 37 225.252 30.4C225.152 23.7 219.959 18.2 213.668 18.2ZM213.668 40.2C208.575 40.2 204.481 35.8 204.481 30.4C204.481 24.9 208.575 20.5 213.668 20.5C218.761 20.5 222.855 25 222.855 30.4C222.855 35.8 218.661 40.2 213.668 40.2Z" fill="#394531"/>
<path d="M239.132 18.3C236.036 17.9 233.34 18.7 231.243 20.6C230.944 20.9 230.644 21.2 230.344 21.6V19.1V18.7H229.945H228.347H227.948V19.1V41.5V41.9H228.347H229.945H230.344V41.5V28C230.344 25.7 231.243 23.7 232.741 22.3C234.239 20.9 236.436 20.2 239.032 20.5H239.432V20.1V18.6V18.3H239.132Z" fill="#394531"/>
<path d="M261.7 41.3L252.314 27.4L260.602 19.4L261.201 18.8H260.302H258.006H257.906L257.806 18.9L245.323 31V9.19998V8.89999H244.924H243.326H243.027V9.19998V41.5V41.9H243.326H244.924H245.323V41.5V34.2L250.616 29L259.204 41.7L259.304 41.9H259.404H261.401H262.1L261.7 41.3Z" fill="#394531"/>
<path d="M272.985 28.4C267.592 27.6 265.994 26.8 265.994 24.7C265.994 23.8 266.294 23 266.993 22.4C268.191 21.2 270.188 20.5 272.485 20.5C276.28 20.5 278.677 22.1 279.575 25L279.675 25.3H279.975H281.572H281.972L281.872 24.9C280.873 20.7 277.478 18.4 272.385 18.4C266.594 18.4 263.598 21.6 263.598 24.8C263.698 29.5 268.591 30.2 272.485 30.8H272.585C277.878 31.6 279.975 32.8 280.075 35.4C280.174 36.5 279.775 37.5 279.076 38.2C277.778 39.5 275.581 40.3 273.084 40.3C268.391 40.3 265.495 38.4 264.696 35.1L264.596 34.8H264.297H262.699H262.3L262.399 35.2C263.098 39.8 267.093 42.5 273.084 42.5C276.28 42.5 279.076 41.5 280.674 39.8C281.772 38.6 282.371 37 282.371 35.3C282.271 30.4 277.778 29.1 272.985 28.4Z" fill="#394531"/>
</g>
<defs>
<clipPath id="clip0_83_244">
<rect width="62.181" height="61.9" fill="white"/>
</clipPath>
<clipPath id="clip1_83_244">
<rect width="206.21" height="44.1" fill="white" transform="translate(76.1614 8.89999)"/>
</clipPath>
</defs>
</svg>
