<svg
        width="25"
        height="24"
        viewBox="0 0 25 24"
        fill="none"
        xmlns="http://www.w3.org/2000/svg"
>
    <path
            fill-rule="evenodd"
            clip-rule="evenodd"
            d="M15.4027 11.7483C16.6155 10.836 17.3999 9.38458 17.3999 7.75C17.3999 4.98858 15.1613 2.75 12.3999 2.75C9.63848 2.75 7.3999 4.98858 7.3999 7.75C7.3999 9.38458 8.18426 10.836 9.39714 11.7483C5.76244 12.9951 3.1499 16.4424 3.1499 20.5C3.1499 20.9142 3.48569 21.25 3.8999 21.25C4.31412 21.25 4.6499 20.9142 4.6499 20.5C4.6499 16.2198 8.1197 12.75 12.3999 12.75C16.6801 12.75 20.1499 16.2198 20.1499 20.5C20.1499 20.9142 20.4857 21.25 20.8999 21.25C21.3141 21.25 21.6499 20.9142 21.6499 20.5C21.6499 16.4424 19.0374 12.9951 15.4027 11.7483ZM8.8999 7.75C8.8999 5.817 10.4669 4.25 12.3999 4.25C14.3329 4.25 15.8999 5.817 15.8999 7.75C15.8999 9.683 14.3329 11.25 12.3999 11.25C10.4669 11.25 8.8999 9.683 8.8999 7.75Z"
            fill="#B4B6B3"
    />
</svg>