<svg
        width="25"
        height="24"
        viewBox="0 0 25 24"
        fill="none"
        xmlns="http://www.w3.org/2000/svg"
>
    <path
            fill-rule="evenodd"
            clip-rule="evenodd"
            d="M17.2 3.25C16.2335 3.25 15.45 4.0335 15.45 5V7.26772C15.3683 7.25604 15.2848 7.25 15.2 7.25H13.2C12.2335 7.25 11.45 8.0335 11.45 9V11.2677C11.3683 11.256 11.2848 11.25 11.2 11.25H9.19995C8.23345 11.25 7.44995 12.0335 7.44995 13V15.2677C7.3683 15.256 7.28483 15.25 7.19995 15.25H5.19995C4.23345 15.25 3.44995 16.0335 3.44995 17V19C3.44995 19.9665 4.23345 20.75 5.19995 20.75H19.2C20.1665 20.75 20.95 19.9665 20.95 19V5C20.95 4.0335 20.1665 3.25 19.2 3.25H17.2ZM16.95 19.25H19.2C19.338 19.25 19.45 19.1381 19.45 19V5C19.45 4.86193 19.338 4.75 19.2 4.75H17.2C17.0619 4.75 16.95 4.86193 16.95 5V19.25ZM15.45 19.25V9C15.45 8.86193 15.338 8.75 15.2 8.75H13.2C13.0619 8.75 12.95 8.86193 12.95 9V19.25H15.45ZM11.45 13V19.25H8.94995V13C8.94995 12.8619 9.06188 12.75 9.19995 12.75H11.2C11.338 12.75 11.45 12.8619 11.45 13ZM7.44995 19.25V17C7.44995 16.8619 7.33802 16.75 7.19995 16.75H5.19995C5.06188 16.75 4.94995 16.8619 4.94995 17V19C4.94995 19.1381 5.06188 19.25 5.19995 19.25H7.44995Z"
            fill="#B4B6B3"
    />
</svg>