<svg width="213" height="32" viewBox="0 0 213 32" fill="none" xmlns="http://www.w3.org/2000/svg">
    <path fill-rule="evenodd" clip-rule="evenodd" d="M8.60436 30.3931C8.56716 30.9244 8.54937 31.459 8.54937 32H0.246826C0.246826 31.4428 0.261384 30.8905 0.288881 30.3415C1.15262 13.4395 15.1406 0 32.2682 0C49.5138 0 63.5745 13.622 64.262 30.6871C64.2798 31.1231 64.2895 31.5591 64.2895 32H55.9885C55.9885 31.5091 55.9724 31.0213 55.9416 30.5369C55.1847 18.1454 44.8538 8.29594 32.2682 8.29594C19.7294 8.29594 9.43252 18.0695 8.60436 30.3931ZM19.3105 30.49C19.2521 30.9912 19.2229 31.4954 19.2231 32H10.9206C10.9206 31.5268 10.9368 31.0585 10.9675 30.595C11.6921 19.4681 20.9506 10.6667 32.2682 10.6667C43.6035 10.6667 52.8749 19.4939 53.5736 30.6435C53.6011 31.0924 53.6141 31.5446 53.6141 32H45.3148C45.3148 31.5236 45.2889 31.0553 45.2371 30.5902C44.5335 24.0626 38.9856 18.9626 32.2682 18.9626C25.5863 18.9626 20.061 24.0109 19.3105 30.49V30.49ZM32.2682 21.3333C33.6706 21.3335 35.0593 21.6097 36.3548 22.1459C37.6504 22.6822 38.8274 23.468 39.8186 24.4586C40.8098 25.4492 41.5959 26.625 42.1318 27.919C42.6677 29.213 42.943 30.5998 42.9419 32H21.5944C21.5935 30.5998 21.869 29.2132 22.4049 27.9193C22.9409 26.6254 23.727 25.4496 24.7182 24.4591C25.7094 23.4685 26.8863 22.6827 28.1817 22.1463C29.4772 21.61 30.8658 21.3338 32.2682 21.3333V21.3333Z" fill="#262E20"/>
    <path fill-rule="evenodd" clip-rule="evenodd" d="M96.0233 28.8441V8.86451H104.967V3.15606H80.3V8.86451H89.1214V28.8441H96.0233ZM133.25 16.0001C133.25 23.9104 127.369 29.3334 119.895 29.3334C112.421 29.3334 106.541 23.9104 106.541 16.0001C106.541 8.08979 112.421 2.66675 119.895 2.66675C127.369 2.66675 133.25 8.08979 133.25 16.0001ZM126.103 16.0001C126.103 11.6372 123.693 8.78295 119.895 8.78295C116.097 8.78295 113.688 11.6372 113.688 16.0001C113.688 20.3629 116.097 23.2172 119.895 23.2172C123.693 23.2172 126.103 20.3629 126.103 16.0001ZM143.931 23.3803H146.667C151.159 23.3803 153.814 20.6891 153.814 15.9593C153.814 11.311 151.159 8.61985 146.667 8.61985H143.931V23.3803ZM136.988 28.8441V3.15606H147.157C155.692 3.15606 160.961 7.96747 160.961 16.0001C160.961 24.0327 155.692 28.8441 147.157 28.8441H136.988ZM171.764 3.15606H179.523L189.774 28.8441H182.382L180.463 23.8696H170.416L168.497 28.8441H161.513L171.764 3.15606ZM175.358 11.1071L172.417 18.6912H178.461L175.521 11.1071H175.358ZM199.624 12.4119L205.137 3.15606H212.61L202.728 19.0989V28.8441H195.989V19.0989L186.105 3.15606H193.824L199.624 12.4119Z" fill="#262E20"/>
</svg>
