<svg width="210" height="32" viewBox="0 0 210 32" fill="none" xmlns="http://www.w3.org/2000/svg">
    <g clip-path="url(#clip0_1257_60507)">
        <path d="M31.923 16C31.923 24.8366 24.9139 32 16.2658 32C7.61953 32 0.610352 24.8366 0.610352 16C0.610352 7.16343 7.61953 0 16.2658 0C24.9139 0 31.923 7.16343 31.923 16Z" fill="#262E20"/>
        <path d="M46.5546 22.8673C44.0902 22.8673 42.7149 21.3261 42.7149 18.6077V4.80884H36.6063V18.572C36.6063 24.6153 40.2156 28.0686 46.5546 28.0686C52.8936 28.0686 56.5029 24.6153 56.5029 18.572V4.80884H50.3943V18.6077C50.3943 21.3261 49.019 22.8673 46.5546 22.8673V22.8673Z" fill="#262E20"/>
        <path d="M67.2845 28.0683C72.6391 28.0683 76.1507 25.1501 76.1507 20.8192C76.1507 17.7298 74.3426 15.3468 69.5465 14.0054L67.871 13.5345C65.4764 12.8638 64.5898 12.1289 64.5898 11.0515C64.5898 9.90997 65.5741 9.27496 67.3125 9.27496C69.4208 9.27496 71.6827 10.4808 73.2605 11.8578L76.3113 7.9336C73.9167 5.71464 70.6984 4.37329 67.2845 4.37329C62.1254 4.37329 58.5161 7.22725 58.5161 11.6224C58.5161 15.0114 60.6802 17.2304 64.6875 18.3006L66.0698 18.6716C69.0578 19.4779 70.077 20.0843 70.077 21.2901C70.077 22.5316 69.0229 23.1666 67.2496 23.1666C64.6247 23.1666 62.4535 22.1963 60.6802 20.5838L57.7272 24.3796C60.1916 26.7269 63.6403 28.0683 67.2845 28.0683V28.0683Z" fill="#262E20"/>
        <path d="M93.5843 27.6334H99.7976L91.6155 4.80884H84.5226L76.3475 27.6334H82.3863L83.8035 23.3738H92.174L93.5843 27.6334ZM85.3464 18.7361L88.0062 10.7522L90.6312 18.7361H85.3464Z" fill="#262E20"/>
        <path d="M111.581 27.6334H117.689V9.84607H124.328V4.80884H104.948V9.84607H111.581V27.6334Z" fill="#262E20"/>
        <path d="M135.773 28.068C142.468 28.068 147.362 23.202 147.362 16.2526C147.362 9.3104 142.468 4.37305 135.773 4.37305C129.071 4.37305 124.177 9.3104 124.177 16.2526C124.177 23.202 129.071 28.068 135.773 28.068ZM135.773 22.9024C132.59 22.9024 130.383 20.2125 130.383 16.2526C130.383 12.2928 132.59 9.54585 135.773 9.54585C138.956 9.54585 141.156 12.2928 141.156 16.2526C141.156 20.2125 138.956 22.9024 135.773 22.9024Z" fill="#262E20"/>
        <path d="M149.475 27.6334H158.271C164.875 27.6334 169.574 22.9315 169.574 16.2247C169.574 9.51073 164.875 4.80884 158.271 4.80884H149.475V27.6334ZM155.485 22.7032V9.74618H158.271C161.489 9.74618 163.465 12.329 163.465 16.2247C163.465 20.1132 161.489 22.7032 158.271 22.7032H155.485Z" fill="#262E20"/>
        <path d="M185.682 27.6334H191.895L183.713 4.80884H176.62L168.445 27.6334H174.484L175.901 23.3738H184.272L185.682 27.6334ZM177.444 18.7361L180.104 10.7522L182.729 18.7361H177.444Z" fill="#262E20"/>
        <path d="M201.843 19.414L209.753 4.80884H202.862L198.757 13.8701L194.617 4.80884H187.72L195.637 19.414V27.6334H201.843V19.414Z" fill="#262E20"/>
    </g>
    <defs>
        <clipPath id="clip0_1257_60507">
            <rect width="209.143" height="32" fill="white" transform="translate(0.610352)"/>
        </clipPath>
    </defs>
</svg>
